<svg xmlns="http://www.w3.org/2000/svg" viewBox="0 0 3906.25 550.5"><defs><style>.cls-1,.cls-4{font-size:100px;font-family:LemonMilkRUSBYLYAJKA, "Lemon/Milk(RUS BY LYAJKA)";}.cls-1,.cls-2,.cls-4,.cls-5{letter-spacing:0.2em;}.cls-2,.cls-5{font-size:70px;font-family:CenturyGothic, Century Gothic;}.cls-3,.cls-6{stroke:#000;stroke-miterlimit:10;}.cls-4,.cls-5,.cls-6{fill:#fff;}</style></defs><g id="Текст"><text class="cls-1" transform="translate(369.47 237.33)"><tspan xml:space="preserve">ТЕАТР НА ПолIтесi   </tspan></text><text class="cls-2" transform="translate(369.47 352.27)">імені Ігоря Сікорського</text><rect x="1906.25" width="2000" height="500"/></g><g id="Логотип"><rect class="cls-3" x="124.34" y="177.49" width="26.87" height="175.23"/><rect class="cls-3" x="170.68" y="177.49" width="26.87" height="175.23"/><rect class="cls-3" x="217.02" y="177.49" width="26.87" height="175.23"/><rect class="cls-3" x="78" y="177.49" width="26.87" height="175.23"/><rect class="cls-3" x="31.66" y="177.49" width="26.87" height="175.23"/><polygon class="cls-3" points="274.65 400.43 0.9 400.43 23.13 364.6 253.27 364.6 274.65 400.43"/><polygon class="cls-3" points="269.77 164.83 5.78 165.61 137.58 100.19 137.58 100.19 269.77 164.83"/><text class="cls-4" transform="translate(2414.69 212.73)"><tspan xml:space="preserve">ТЕАТР НА ПолIтесi   </tspan></text><text class="cls-5" transform="translate(2414.69 327.67)">імені Ігоря Сікорського</text><rect class="cls-6" x="2169.56" y="152.89" width="26.87" height="175.23"/><rect class="cls-6" x="2215.9" y="152.89" width="26.87" height="175.23"/><rect class="cls-6" x="2262.24" y="152.89" width="26.87" height="175.23"/><rect class="cls-6" x="2123.22" y="152.89" width="26.87" height="175.23"/><rect class="cls-6" x="2076.88" y="152.89" width="26.87" height="175.23"/><polygon class="cls-6" points="2319.87 375.83 2046.12 375.83 2068.34 340 2298.49 340 2319.87 375.83"/><polygon class="cls-6" points="2314.99 140.24 2051 141.02 2182.8 75.6 2182.8 75.6 2314.99 140.24"/></g></svg>